%TF.GenerationSoftware,KiCad,Pcbnew,9.0.1*%
%TF.CreationDate,2026-04-05T14:34:45+10:00*%
%TF.ProjectId,Remora Nucleo F446ZE Hat,52656d6f-7261-4204-9e75-636c656f2046,rev?*%
%TF.SameCoordinates,Original*%
%TF.FileFunction,Paste,Top*%
%TF.FilePolarity,Positive*%
%FSLAX46Y46*%
G04 Gerber Fmt 4.6, Leading zero omitted, Abs format (unit mm)*
G04 Created by KiCad (PCBNEW 9.0.1) date 2026-04-05 14:34:45*
%MOMM*%
%LPD*%
G01*
G04 APERTURE LIST*
G04 Aperture macros list*
%AMRoundRect*
0 Rectangle with rounded corners*
0 $1 Rounding radius*
0 $2 $3 $4 $5 $6 $7 $8 $9 X,Y pos of 4 corners*
0 Add a 4 corners polygon primitive as box body*
4,1,4,$2,$3,$4,$5,$6,$7,$8,$9,$2,$3,0*
0 Add four circle primitives for the rounded corners*
1,1,$1+$1,$2,$3*
1,1,$1+$1,$4,$5*
1,1,$1+$1,$6,$7*
1,1,$1+$1,$8,$9*
0 Add four rect primitives between the rounded corners*
20,1,$1+$1,$2,$3,$4,$5,0*
20,1,$1+$1,$4,$5,$6,$7,0*
20,1,$1+$1,$6,$7,$8,$9,0*
20,1,$1+$1,$8,$9,$2,$3,0*%
G04 Aperture macros list end*
%ADD10RoundRect,0.250000X0.650000X-0.412500X0.650000X0.412500X-0.650000X0.412500X-0.650000X-0.412500X0*%
%ADD11RoundRect,0.250000X-0.625000X0.400000X-0.625000X-0.400000X0.625000X-0.400000X0.625000X0.400000X0*%
%ADD12RoundRect,0.250000X0.625000X-0.400000X0.625000X0.400000X-0.625000X0.400000X-0.625000X-0.400000X0*%
%ADD13RoundRect,0.250000X-0.400000X-0.625000X0.400000X-0.625000X0.400000X0.625000X-0.400000X0.625000X0*%
%ADD14RoundRect,0.250000X0.400000X0.625000X-0.400000X0.625000X-0.400000X-0.625000X0.400000X-0.625000X0*%
%ADD15RoundRect,0.162500X-0.162500X0.750000X-0.162500X-0.750000X0.162500X-0.750000X0.162500X0.750000X0*%
%ADD16RoundRect,0.162500X-0.750000X-0.162500X0.750000X-0.162500X0.750000X0.162500X-0.750000X0.162500X0*%
%ADD17RoundRect,0.250000X-0.650000X0.412500X-0.650000X-0.412500X0.650000X-0.412500X0.650000X0.412500X0*%
%ADD18RoundRect,0.250001X-0.624999X0.462499X-0.624999X-0.462499X0.624999X-0.462499X0.624999X0.462499X0*%
%ADD19RoundRect,0.250000X-0.412500X-0.650000X0.412500X-0.650000X0.412500X0.650000X-0.412500X0.650000X0*%
%ADD20RoundRect,0.250000X0.412500X0.650000X-0.412500X0.650000X-0.412500X-0.650000X0.412500X-0.650000X0*%
%ADD21RoundRect,0.150000X0.587500X0.150000X-0.587500X0.150000X-0.587500X-0.150000X0.587500X-0.150000X0*%
%ADD22RoundRect,0.150000X-0.825000X-0.150000X0.825000X-0.150000X0.825000X0.150000X-0.825000X0.150000X0*%
%ADD23RoundRect,0.237500X0.287500X0.237500X-0.287500X0.237500X-0.287500X-0.237500X0.287500X-0.237500X0*%
%ADD24RoundRect,0.150000X0.150000X-0.587500X0.150000X0.587500X-0.150000X0.587500X-0.150000X-0.587500X0*%
%ADD25RoundRect,0.237500X-0.287500X-0.237500X0.287500X-0.237500X0.287500X0.237500X-0.287500X0.237500X0*%
%ADD26RoundRect,0.249999X-0.850001X-3.500001X0.850001X-3.500001X0.850001X3.500001X-0.850001X3.500001X0*%
%ADD27RoundRect,0.162500X0.750000X0.162500X-0.750000X0.162500X-0.750000X-0.162500X0.750000X-0.162500X0*%
%ADD28RoundRect,0.237500X0.237500X-0.287500X0.237500X0.287500X-0.237500X0.287500X-0.237500X-0.287500X0*%
%ADD29RoundRect,0.250000X-1.000000X-0.650000X1.000000X-0.650000X1.000000X0.650000X-1.000000X0.650000X0*%
%ADD30RoundRect,0.250001X0.624999X-0.462499X0.624999X0.462499X-0.624999X0.462499X-0.624999X-0.462499X0*%
%ADD31R,1.400000X1.600000*%
G04 APERTURE END LIST*
D10*
%TO.C,C35*%
X85921000Y-156117000D03*
X85921000Y-152992000D03*
%TD*%
D11*
%TO.C,R22*%
X156771000Y-144062000D03*
X156771000Y-147162000D03*
%TD*%
%TO.C,R49*%
X47383500Y-87817000D03*
X47383500Y-90917000D03*
%TD*%
D12*
%TO.C,R101*%
X81921000Y-156117000D03*
X81921000Y-153017000D03*
%TD*%
D13*
%TO.C,R54*%
X120851000Y-119156000D03*
X123951000Y-119156000D03*
%TD*%
D14*
%TO.C,R18*%
X138175000Y-157220000D03*
X135075000Y-157156000D03*
%TD*%
D15*
%TO.C,U7*%
X47733500Y-111917000D03*
X46463500Y-111917000D03*
X45193500Y-111917000D03*
X43923500Y-111917000D03*
X42653500Y-111917000D03*
X41383500Y-111917000D03*
X40113500Y-111917000D03*
X38843500Y-111917000D03*
X38843500Y-118092000D03*
X40113500Y-118092000D03*
X41383500Y-118092000D03*
X42653500Y-118092000D03*
X43923500Y-118092000D03*
X45193500Y-118092000D03*
X46463500Y-118092000D03*
X47733500Y-118092000D03*
%TD*%
D16*
%TO.C,U4*%
X126683500Y-155117000D03*
X126683500Y-156387000D03*
X126683500Y-157657000D03*
X126683500Y-158927000D03*
X126683500Y-160197000D03*
X126683500Y-161467000D03*
X126683500Y-162737000D03*
X126683500Y-164007000D03*
X132858500Y-164007000D03*
X132858500Y-162737000D03*
X132858500Y-161467000D03*
X132858500Y-160197000D03*
X132858500Y-158927000D03*
X132858500Y-157657000D03*
X132858500Y-156387000D03*
X132858500Y-155117000D03*
%TD*%
D15*
%TO.C,U9*%
X47733500Y-149317000D03*
X46463500Y-149317000D03*
X45193500Y-149317000D03*
X43923500Y-149317000D03*
X42653500Y-149317000D03*
X41383500Y-149317000D03*
X40113500Y-149317000D03*
X38843500Y-149317000D03*
X38843500Y-155492000D03*
X40113500Y-155492000D03*
X41383500Y-155492000D03*
X42653500Y-155492000D03*
X43923500Y-155492000D03*
X45193500Y-155492000D03*
X46463500Y-155492000D03*
X47733500Y-155492000D03*
%TD*%
D17*
%TO.C,C20*%
X122771000Y-106062000D03*
X122771000Y-109187000D03*
%TD*%
%TO.C,C19*%
X134771000Y-106062000D03*
X134771000Y-109187000D03*
%TD*%
%TO.C,C14*%
X134771000Y-144062000D03*
X134771000Y-147187000D03*
%TD*%
D12*
%TO.C,R87*%
X87000000Y-92100000D03*
X87000000Y-89000000D03*
%TD*%
D18*
%TO.C,D1*%
X84151000Y-140842000D03*
X84151000Y-143817000D03*
%TD*%
D11*
%TO.C,R83*%
X118921000Y-68142000D03*
X118921000Y-71242000D03*
%TD*%
D12*
%TO.C,R12*%
X142661000Y-33997000D03*
X142661000Y-30897000D03*
%TD*%
D19*
%TO.C,C32*%
X84171000Y-172162000D03*
X87296000Y-172162000D03*
%TD*%
D14*
%TO.C,R59*%
X138175000Y-122498000D03*
X135075000Y-122498000D03*
%TD*%
%TO.C,R1*%
X34627000Y-44054000D03*
X31527000Y-44054000D03*
%TD*%
D17*
%TO.C,C9*%
X148771000Y-144037000D03*
X148771000Y-147162000D03*
%TD*%
D16*
%TO.C,U14*%
X126683500Y-79172000D03*
X126683500Y-80442000D03*
X126683500Y-81712000D03*
X126683500Y-82982000D03*
X126683500Y-84252000D03*
X126683500Y-85522000D03*
X126683500Y-86792000D03*
X126683500Y-88062000D03*
X132858500Y-88062000D03*
X132858500Y-86792000D03*
X132858500Y-85522000D03*
X132858500Y-84252000D03*
X132858500Y-82982000D03*
X132858500Y-81712000D03*
X132858500Y-80442000D03*
X132858500Y-79172000D03*
%TD*%
D12*
%TO.C,R3*%
X103921000Y-53642000D03*
X103921000Y-50542000D03*
%TD*%
D17*
%TO.C,C15*%
X148771000Y-106037000D03*
X148771000Y-109162000D03*
%TD*%
D11*
%TO.C,R45*%
X47383500Y-162317000D03*
X47383500Y-165417000D03*
%TD*%
D20*
%TO.C,C11*%
X132841000Y-152100000D03*
X129716000Y-152100000D03*
%TD*%
D17*
%TO.C,C12*%
X160771000Y-144037000D03*
X160771000Y-147162000D03*
%TD*%
D14*
%TO.C,R37*%
X82696000Y-77932000D03*
X79596000Y-77932000D03*
%TD*%
D11*
%TO.C,R84*%
X144921000Y-68117000D03*
X144921000Y-71217000D03*
%TD*%
D14*
%TO.C,R96*%
X71521000Y-159117000D03*
X68421000Y-159117000D03*
%TD*%
%TO.C,R40*%
X82696000Y-68002000D03*
X79596000Y-68002000D03*
%TD*%
%TO.C,R38*%
X82696000Y-74622000D03*
X79596000Y-74622000D03*
%TD*%
%TO.C,R75*%
X138175000Y-84553000D03*
X135075000Y-84553000D03*
%TD*%
%TO.C,R97*%
X77021000Y-159117000D03*
X73921000Y-159117000D03*
%TD*%
%TO.C,R76*%
X138175000Y-87863000D03*
X135075000Y-87863000D03*
%TD*%
D13*
%TO.C,R15*%
X120851000Y-160466000D03*
X123951000Y-160466000D03*
%TD*%
D21*
%TO.C,U18*%
X69796000Y-154317000D03*
X69796000Y-152417000D03*
X67921000Y-153367000D03*
%TD*%
D22*
%TO.C,U2*%
X86346000Y-40422000D03*
X86346000Y-41692000D03*
X86346000Y-42962000D03*
X86346000Y-44232000D03*
X91296000Y-44232000D03*
X91296000Y-42962000D03*
X91296000Y-41692000D03*
X91296000Y-40422000D03*
%TD*%
D23*
%TO.C,F5*%
X68521000Y-76132000D03*
X66771000Y-76132000D03*
%TD*%
D24*
%TO.C,D7*%
X56021000Y-91192000D03*
X57921000Y-91192000D03*
X56971000Y-89317000D03*
%TD*%
D17*
%TO.C,C24*%
X148771000Y-68092000D03*
X148771000Y-71217000D03*
%TD*%
D15*
%TO.C,U10*%
X47733500Y-167917000D03*
X46463500Y-167917000D03*
X45193500Y-167917000D03*
X43923500Y-167917000D03*
X42653500Y-167917000D03*
X41383500Y-167917000D03*
X40113500Y-167917000D03*
X38843500Y-167917000D03*
X38843500Y-174092000D03*
X40113500Y-174092000D03*
X41383500Y-174092000D03*
X42653500Y-174092000D03*
X43923500Y-174092000D03*
X45193500Y-174092000D03*
X46463500Y-174092000D03*
X47733500Y-174092000D03*
%TD*%
D11*
%TO.C,R44*%
X39883500Y-143717000D03*
X39883500Y-146817000D03*
%TD*%
D25*
%TO.C,F11*%
X82446000Y-164617000D03*
X84196000Y-164617000D03*
%TD*%
D20*
%TO.C,C25*%
X132841000Y-76155000D03*
X129716000Y-76155000D03*
%TD*%
%TO.C,C10*%
X149428000Y-152227000D03*
X146303000Y-152227000D03*
%TD*%
D13*
%TO.C,R72*%
X120851000Y-87831000D03*
X123951000Y-87831000D03*
%TD*%
D11*
%TO.C,R79*%
X126771000Y-68142000D03*
X126771000Y-71242000D03*
%TD*%
%TO.C,R35*%
X42383500Y-106317000D03*
X42383500Y-109417000D03*
%TD*%
D17*
%TO.C,C28*%
X86921000Y-94092000D03*
X86921000Y-97217000D03*
%TD*%
D26*
%TO.C,L1*%
X84551621Y-30554500D03*
X90551621Y-30554500D03*
%TD*%
D11*
%TO.C,R46*%
X44883500Y-162317000D03*
X44883500Y-165417000D03*
%TD*%
D18*
%TO.C,D6*%
X142661000Y-26017000D03*
X142661000Y-28992000D03*
%TD*%
D24*
%TO.C,D8*%
X59921000Y-91192000D03*
X61821000Y-91192000D03*
X60871000Y-89317000D03*
%TD*%
D13*
%TO.C,R70*%
X120851000Y-81211000D03*
X123951000Y-81211000D03*
%TD*%
D11*
%TO.C,R28*%
X144921000Y-144062000D03*
X144921000Y-147162000D03*
%TD*%
%TO.C,R81*%
X114921000Y-68142000D03*
X114921000Y-71242000D03*
%TD*%
D27*
%TO.C,U8*%
X77233500Y-77067000D03*
X77233500Y-75797000D03*
X77233500Y-74527000D03*
X77233500Y-73257000D03*
X77233500Y-71987000D03*
X77233500Y-70717000D03*
X77233500Y-69447000D03*
X77233500Y-68177000D03*
X71058500Y-68177000D03*
X71058500Y-69447000D03*
X71058500Y-70717000D03*
X71058500Y-71987000D03*
X71058500Y-73257000D03*
X71058500Y-74527000D03*
X71058500Y-75797000D03*
X71058500Y-77067000D03*
%TD*%
D20*
%TO.C,C27*%
X60971000Y-80857000D03*
X57846000Y-80857000D03*
%TD*%
D11*
%TO.C,R50*%
X44883500Y-87817000D03*
X44883500Y-90917000D03*
%TD*%
D12*
%TO.C,R11*%
X103291000Y-34100000D03*
X103291000Y-31000000D03*
%TD*%
D14*
%TO.C,R20*%
X138175000Y-163840000D03*
X135075000Y-163776000D03*
%TD*%
D23*
%TO.C,F3*%
X69646000Y-123747000D03*
X67896000Y-123747000D03*
%TD*%
D11*
%TO.C,R21*%
X130771000Y-144087000D03*
X130771000Y-147187000D03*
%TD*%
D20*
%TO.C,C17*%
X132841000Y-114100000D03*
X129716000Y-114100000D03*
%TD*%
D13*
%TO.C,R71*%
X120851000Y-84521000D03*
X123951000Y-84521000D03*
%TD*%
D17*
%TO.C,C23*%
X134771000Y-68117000D03*
X134771000Y-71242000D03*
%TD*%
D11*
%TO.C,R43*%
X42383500Y-143717000D03*
X42383500Y-146817000D03*
%TD*%
%TO.C,R80*%
X152771000Y-68117000D03*
X152771000Y-71217000D03*
%TD*%
D13*
%TO.C,R14*%
X120851000Y-157156000D03*
X123951000Y-157156000D03*
%TD*%
D12*
%TO.C,R88*%
X86900000Y-103300000D03*
X86900000Y-100200000D03*
%TD*%
D11*
%TO.C,R68*%
X144921000Y-106062000D03*
X144921000Y-109162000D03*
%TD*%
%TO.C,R27*%
X118921000Y-144087000D03*
X118921000Y-147187000D03*
%TD*%
D13*
%TO.C,R53*%
X120851000Y-115846000D03*
X123951000Y-115846000D03*
%TD*%
D11*
%TO.C,R63*%
X126771000Y-106087000D03*
X126771000Y-109187000D03*
%TD*%
D22*
%TO.C,U5*%
X145821000Y-155117000D03*
X145821000Y-156387000D03*
X145821000Y-157657000D03*
X145821000Y-158927000D03*
X145821000Y-160197000D03*
X145821000Y-161467000D03*
X145821000Y-162737000D03*
X145821000Y-164007000D03*
X150771000Y-164007000D03*
X150771000Y-162737000D03*
X150771000Y-161467000D03*
X150771000Y-160197000D03*
X150771000Y-158927000D03*
X150771000Y-157657000D03*
X150771000Y-156387000D03*
X150771000Y-155117000D03*
%TD*%
D11*
%TO.C,R47*%
X42383500Y-162317000D03*
X42383500Y-165417000D03*
%TD*%
D23*
%TO.C,F7*%
X68521000Y-71112000D03*
X66771000Y-71112000D03*
%TD*%
D14*
%TO.C,R29*%
X83821000Y-130567000D03*
X80721000Y-130567000D03*
%TD*%
D11*
%TO.C,R42*%
X44883500Y-143717000D03*
X44883500Y-146817000D03*
%TD*%
%TO.C,R77*%
X130771000Y-68142000D03*
X130771000Y-71242000D03*
%TD*%
D13*
%TO.C,R99*%
X78196000Y-149617000D03*
X81296000Y-149617000D03*
%TD*%
D28*
%TO.C,F9*%
X53421000Y-91067000D03*
X53421000Y-89317000D03*
%TD*%
D12*
%TO.C,R10*%
X103300000Y-39100000D03*
X103300000Y-36000000D03*
%TD*%
%TO.C,R90*%
X84421000Y-108417000D03*
X84421000Y-105317000D03*
%TD*%
D11*
%TO.C,R51*%
X42383500Y-87817000D03*
X42383500Y-90917000D03*
%TD*%
D19*
%TO.C,C37*%
X82071000Y-162117000D03*
X85196000Y-162117000D03*
%TD*%
D29*
%TO.C,D4*%
X124881000Y-37247000D03*
X128881000Y-37247000D03*
%TD*%
D11*
%TO.C,R26*%
X140771000Y-144062000D03*
X140771000Y-147162000D03*
%TD*%
D22*
%TO.C,U15*%
X145821000Y-79172000D03*
X145821000Y-80442000D03*
X145821000Y-81712000D03*
X145821000Y-82982000D03*
X145821000Y-84252000D03*
X145821000Y-85522000D03*
X145821000Y-86792000D03*
X145821000Y-88062000D03*
X150771000Y-88062000D03*
X150771000Y-86792000D03*
X150771000Y-85522000D03*
X150771000Y-84252000D03*
X150771000Y-82982000D03*
X150771000Y-81712000D03*
X150771000Y-80442000D03*
X150771000Y-79172000D03*
%TD*%
D26*
%TO.C,L2*%
X123986621Y-30643000D03*
X129986621Y-30643000D03*
%TD*%
D14*
%TO.C,R92*%
X71396000Y-176617000D03*
X68296000Y-176617000D03*
%TD*%
D17*
%TO.C,C33*%
X83421000Y-111632000D03*
X83421000Y-114757000D03*
%TD*%
D13*
%TO.C,R16*%
X120851000Y-163776000D03*
X123951000Y-163776000D03*
%TD*%
D23*
%TO.C,F8*%
X68521000Y-68602000D03*
X66771000Y-68602000D03*
%TD*%
D11*
%TO.C,R61*%
X130771000Y-106087000D03*
X130771000Y-109187000D03*
%TD*%
%TO.C,R66*%
X140771000Y-106062000D03*
X140771000Y-109162000D03*
%TD*%
%TO.C,R23*%
X126771000Y-144087000D03*
X126771000Y-147187000D03*
%TD*%
D17*
%TO.C,C6*%
X122341000Y-41107000D03*
X122341000Y-44232000D03*
%TD*%
%TO.C,C18*%
X160771000Y-106037000D03*
X160771000Y-109162000D03*
%TD*%
D11*
%TO.C,R64*%
X152771000Y-106062000D03*
X152771000Y-109162000D03*
%TD*%
D14*
%TO.C,R30*%
X83821000Y-127257000D03*
X80721000Y-127257000D03*
%TD*%
D19*
%TO.C,C38*%
X55421000Y-113167000D03*
X58546000Y-113167000D03*
%TD*%
D11*
%TO.C,R65*%
X114921000Y-106087000D03*
X114921000Y-109187000D03*
%TD*%
%TO.C,R33*%
X47383500Y-106317000D03*
X47383500Y-109417000D03*
%TD*%
D14*
%TO.C,R32*%
X83821000Y-120637000D03*
X80721000Y-120637000D03*
%TD*%
D11*
%TO.C,R48*%
X39883500Y-162317000D03*
X39883500Y-165417000D03*
%TD*%
D17*
%TO.C,C36*%
X74696000Y-161617000D03*
X74696000Y-164742000D03*
%TD*%
D11*
%TO.C,R2*%
X86691000Y-140717000D03*
X86691000Y-143817000D03*
%TD*%
%TO.C,R34*%
X44883500Y-106317000D03*
X44883500Y-109417000D03*
%TD*%
D19*
%TO.C,C30*%
X84171000Y-181162000D03*
X87296000Y-181162000D03*
%TD*%
D11*
%TO.C,R41*%
X47383500Y-143717000D03*
X47383500Y-146817000D03*
%TD*%
D14*
%TO.C,R17*%
X138175000Y-153910000D03*
X135075000Y-153846000D03*
%TD*%
D13*
%TO.C,R94*%
X82096000Y-159117000D03*
X85196000Y-159117000D03*
%TD*%
D17*
%TO.C,C22*%
X160771000Y-68092000D03*
X160771000Y-71217000D03*
%TD*%
D13*
%TO.C,R100*%
X77196000Y-167117000D03*
X80296000Y-167117000D03*
%TD*%
D22*
%TO.C,U13*%
X145821000Y-117117000D03*
X145821000Y-118387000D03*
X145821000Y-119657000D03*
X145821000Y-120927000D03*
X145821000Y-122197000D03*
X145821000Y-123467000D03*
X145821000Y-124737000D03*
X145821000Y-126007000D03*
X150771000Y-126007000D03*
X150771000Y-124737000D03*
X150771000Y-123467000D03*
X150771000Y-122197000D03*
X150771000Y-120927000D03*
X150771000Y-119657000D03*
X150771000Y-118387000D03*
X150771000Y-117117000D03*
%TD*%
D28*
%TO.C,F10*%
X64421000Y-90817000D03*
X64421000Y-89067000D03*
%TD*%
D12*
%TO.C,R86*%
X84421000Y-103300000D03*
X84421000Y-100200000D03*
%TD*%
D27*
%TO.C,U17*%
X81171000Y-181052000D03*
X81171000Y-179782000D03*
X81171000Y-178512000D03*
X81171000Y-177242000D03*
X81171000Y-175972000D03*
X81171000Y-174702000D03*
X81171000Y-173432000D03*
X81171000Y-172162000D03*
X74996000Y-172162000D03*
X74996000Y-173432000D03*
X74996000Y-174702000D03*
X74996000Y-175972000D03*
X74996000Y-177242000D03*
X74996000Y-178512000D03*
X74996000Y-179782000D03*
X74996000Y-181052000D03*
%TD*%
D20*
%TO.C,C16*%
X149428000Y-114227000D03*
X146303000Y-114227000D03*
%TD*%
D24*
%TO.C,Q1*%
X77296000Y-163504500D03*
X79196000Y-163504500D03*
X78246000Y-161629500D03*
%TD*%
D12*
%TO.C,R98*%
X77921000Y-156117000D03*
X77921000Y-153017000D03*
%TD*%
D14*
%TO.C,R39*%
X82696000Y-71312000D03*
X79596000Y-71312000D03*
%TD*%
D20*
%TO.C,C26*%
X149428000Y-76282000D03*
X146303000Y-76282000D03*
%TD*%
D27*
%TO.C,U6*%
X78358500Y-129702000D03*
X78358500Y-128432000D03*
X78358500Y-127162000D03*
X78358500Y-125892000D03*
X78358500Y-124622000D03*
X78358500Y-123352000D03*
X78358500Y-122082000D03*
X78358500Y-120812000D03*
X72183500Y-120812000D03*
X72183500Y-122082000D03*
X72183500Y-123352000D03*
X72183500Y-124622000D03*
X72183500Y-125892000D03*
X72183500Y-127162000D03*
X72183500Y-128432000D03*
X72183500Y-129702000D03*
%TD*%
D17*
%TO.C,C29*%
X86921000Y-105317000D03*
X86921000Y-108442000D03*
%TD*%
D11*
%TO.C,R52*%
X39883500Y-87817000D03*
X39883500Y-90917000D03*
%TD*%
D12*
%TO.C,R89*%
X84421000Y-97217000D03*
X84421000Y-94117000D03*
%TD*%
D22*
%TO.C,U16*%
X56471000Y-83047000D03*
X56471000Y-84317000D03*
X56471000Y-85587000D03*
X56471000Y-86857000D03*
X61421000Y-86857000D03*
X61421000Y-85587000D03*
X61421000Y-84317000D03*
X61421000Y-83047000D03*
%TD*%
D23*
%TO.C,F2*%
X69646000Y-126257000D03*
X67896000Y-126257000D03*
%TD*%
D14*
%TO.C,R60*%
X138175000Y-125808000D03*
X135075000Y-125808000D03*
%TD*%
D11*
%TO.C,R67*%
X118921000Y-106087000D03*
X118921000Y-109187000D03*
%TD*%
D13*
%TO.C,R69*%
X120851000Y-77901000D03*
X123951000Y-77901000D03*
%TD*%
D18*
%TO.C,D5*%
X103291000Y-26092000D03*
X103291000Y-29067000D03*
%TD*%
D15*
%TO.C,U11*%
X47733500Y-93417000D03*
X46463500Y-93417000D03*
X45193500Y-93417000D03*
X43923500Y-93417000D03*
X42653500Y-93417000D03*
X41383500Y-93417000D03*
X40113500Y-93417000D03*
X38843500Y-93417000D03*
X38843500Y-99592000D03*
X40113500Y-99592000D03*
X41383500Y-99592000D03*
X42653500Y-99592000D03*
X43923500Y-99592000D03*
X45193500Y-99592000D03*
X46463500Y-99592000D03*
X47733500Y-99592000D03*
%TD*%
D29*
%TO.C,D3*%
X85446000Y-37158500D03*
X89446000Y-37158500D03*
%TD*%
D23*
%TO.C,F4*%
X69646000Y-121237000D03*
X67896000Y-121237000D03*
%TD*%
D13*
%TO.C,R13*%
X120851000Y-153846000D03*
X123951000Y-153846000D03*
%TD*%
D22*
%TO.C,U3*%
X125781000Y-40510500D03*
X125781000Y-41780500D03*
X125781000Y-43050500D03*
X125781000Y-44320500D03*
X130731000Y-44320500D03*
X130731000Y-43050500D03*
X130731000Y-41780500D03*
X130731000Y-40510500D03*
%TD*%
D30*
%TO.C,D2*%
X101376000Y-53642000D03*
X101376000Y-50667000D03*
%TD*%
D13*
%TO.C,R56*%
X120851000Y-125776000D03*
X123951000Y-125776000D03*
%TD*%
D12*
%TO.C,R85*%
X84500000Y-92100000D03*
X84500000Y-89000000D03*
%TD*%
D11*
%TO.C,R82*%
X140771000Y-68117000D03*
X140771000Y-71217000D03*
%TD*%
D17*
%TO.C,C34*%
X71696000Y-161617000D03*
X71696000Y-164742000D03*
%TD*%
D11*
%TO.C,R62*%
X156771000Y-106062000D03*
X156771000Y-109162000D03*
%TD*%
%TO.C,R36*%
X39883500Y-106317000D03*
X39883500Y-109417000D03*
%TD*%
D31*
%TO.C,SW1*%
X34682000Y-46849000D03*
X34682000Y-54849000D03*
X30182000Y-46849000D03*
X30182000Y-54849000D03*
%TD*%
D14*
%TO.C,R73*%
X138175000Y-77933000D03*
X135075000Y-77933000D03*
%TD*%
D16*
%TO.C,U12*%
X126683500Y-117117000D03*
X126683500Y-118387000D03*
X126683500Y-119657000D03*
X126683500Y-120927000D03*
X126683500Y-122197000D03*
X126683500Y-123467000D03*
X126683500Y-124737000D03*
X126683500Y-126007000D03*
X132858500Y-126007000D03*
X132858500Y-124737000D03*
X132858500Y-123467000D03*
X132858500Y-122197000D03*
X132858500Y-120927000D03*
X132858500Y-119657000D03*
X132858500Y-118387000D03*
X132858500Y-117117000D03*
%TD*%
D14*
%TO.C,R93*%
X71396000Y-172117000D03*
X68296000Y-172117000D03*
%TD*%
D11*
%TO.C,R95*%
X68696000Y-161617000D03*
X68696000Y-164717000D03*
%TD*%
D14*
%TO.C,R31*%
X83821000Y-123947000D03*
X80721000Y-123947000D03*
%TD*%
D11*
%TO.C,R25*%
X114921000Y-144087000D03*
X114921000Y-147187000D03*
%TD*%
D23*
%TO.C,F1*%
X69646000Y-128767000D03*
X67896000Y-128767000D03*
%TD*%
D17*
%TO.C,C13*%
X122771000Y-144062000D03*
X122771000Y-147187000D03*
%TD*%
D14*
%TO.C,R91*%
X71421000Y-181117000D03*
X68321000Y-181117000D03*
%TD*%
%TO.C,R74*%
X138175000Y-81243000D03*
X135075000Y-81243000D03*
%TD*%
D11*
%TO.C,R24*%
X152771000Y-144062000D03*
X152771000Y-147162000D03*
%TD*%
D14*
%TO.C,R19*%
X138175000Y-160530000D03*
X135075000Y-160466000D03*
%TD*%
%TO.C,R57*%
X138175000Y-115878000D03*
X135075000Y-115878000D03*
%TD*%
%TO.C,R58*%
X138175000Y-119188000D03*
X135075000Y-119188000D03*
%TD*%
D13*
%TO.C,R55*%
X120851000Y-122466000D03*
X123951000Y-122466000D03*
%TD*%
D19*
%TO.C,C31*%
X84171000Y-176662000D03*
X87296000Y-176662000D03*
%TD*%
D11*
%TO.C,R78*%
X156771000Y-68117000D03*
X156771000Y-71217000D03*
%TD*%
D17*
%TO.C,C21*%
X122771000Y-68117000D03*
X122771000Y-71242000D03*
%TD*%
D23*
%TO.C,F6*%
X68521000Y-73622000D03*
X66771000Y-73622000D03*
%TD*%
D17*
%TO.C,C5*%
X82866621Y-40676000D03*
X82866621Y-43801000D03*
%TD*%
M02*
