M48
; DRILL file {KiCad 9.0.1} date 2026-04-04T19:22:36+1100
; FORMAT={-:-/ absolute / metric / decimal}
; #@! TF.CreationDate,2026-04-04T19:22:36+11:00
; #@! TF.GenerationSoftware,Kicad,Pcbnew,9.0.1
; #@! TF.FileFunction,Plated,1,2,PTH
FMAT,2
METRIC
; #@! TA.AperFunction,Plated,PTH,ViaDrill
T1C0.300
; #@! TA.AperFunction,Plated,PTH,ViaDrill
T2C0.400
; #@! TA.AperFunction,Plated,PTH,ComponentDrill
T3C0.800
; #@! TA.AperFunction,Plated,PTH,ComponentDrill
T4C1.000
; #@! TA.AperFunction,Plated,PTH,ComponentDrill
T5C1.200
; #@! TA.AperFunction,Plated,PTH,ViaDrill
T6C3.200
; #@! TA.AperFunction,Plated,PTH,ViaDrill
T7C4.500
%
G90
G05
T1
X29.422Y-123.317
X34.921Y-120.317
X36.171Y-119.067
X38.821Y-102.117
X38.821Y-121.517
X41.421Y-102.117
X41.421Y-121.517
X44.021Y-102.117
X44.021Y-121.517
X46.421Y-84.317
X46.621Y-102.117
X46.621Y-121.517
X48.421Y-81.817
X48.421Y-84.317
X53.421Y-92.817
X56.021Y-91.192
X56.471Y-86.857
X57.846Y-80.857
X58.546Y-113.167
X59.921Y-91.192
X65.021Y-174.317
X65.421Y-79.317
X65.448Y-118.789
X66.421Y-79.317
X66.944Y-122.794
X67.921Y-125.317
X67.921Y-153.367
X68.296Y-172.117
X68.696Y-164.717
X69.671Y-84.067
X69.921Y-178.817
X71.058Y-68.177
X71.058Y-70.717
X71.058Y-73.257
X71.058Y-75.797
X71.696Y-164.742
X72.183Y-120.812
X72.183Y-123.352
X72.183Y-125.892
X72.183Y-128.432
X72.421Y-174.317
X74.696Y-164.742
X74.996Y-173.432
X74.996Y-175.972
X74.996Y-178.512
X74.996Y-179.782
X78.021Y-174.317
X78.196Y-149.617
X79.921Y-65.317
X80.296Y-167.117
X81.171Y-179.782
X81.171Y-181.052
X81.921Y-153.017
X82.096Y-159.117
X83.421Y-114.757
X83.821Y-120.637
X83.821Y-123.947
X83.821Y-127.257
X83.821Y-130.567
X84.171Y-181.162
X84.196Y-164.617
X85.196Y-159.117
X85.196Y-162.117
X85.921Y-152.992
X86.921Y-72.317
X87.296Y-172.162
X87.296Y-176.662
X87.296Y-181.162
X88.051Y-32.802
X88.051Y-34.072
X88.051Y-35.342
X88.686Y-39.152
X89.321Y-35.342
X90.591Y-35.342
X92.496Y-39.152
X100.116Y-25.817
X100.116Y-27.087
X101.386Y-25.817
X101.386Y-27.087
X108.371Y-32.675
X114.921Y-68.142
X114.921Y-106.087
X114.921Y-144.087
X116.121Y-122.617
X118.921Y-68.142
X118.921Y-106.087
X118.921Y-144.087
X120.821Y-115.846
X120.821Y-119.156
X120.851Y-77.901
X120.851Y-81.211
X120.851Y-84.521
X120.851Y-87.831
X120.851Y-125.776
X122.341Y-44.232
X122.771Y-71.242
X122.771Y-109.187
X122.771Y-147.187
X126.771Y-68.142
X126.771Y-106.087
X126.771Y-144.087
X128.881Y-37.247
X129.716Y-76.155
X129.716Y-114.1
X129.716Y-152.1
X130.731Y-40.511
X130.731Y-41.78
X130.731Y-43.05
X130.731Y-44.32
X130.771Y-68.142
X130.771Y-106.087
X130.771Y-144.087
X134.771Y-71.242
X134.771Y-109.187
X134.771Y-147.187
X138.175Y-77.933
X138.175Y-81.243
X138.175Y-84.553
X138.175Y-87.863
X138.175Y-115.878
X138.175Y-119.188
X138.175Y-122.498
X138.175Y-125.808
X138.175Y-153.878
X138.175Y-157.188
X138.175Y-160.498
X138.175Y-163.808
X140.771Y-68.117
X140.771Y-106.062
X140.771Y-144.062
X142.661Y-26.017
X144.921Y-68.117
X144.921Y-106.062
X144.921Y-144.062
X145.821Y-80.442
X145.821Y-81.712
X145.821Y-84.252
X145.821Y-85.522
X145.821Y-88.062
X145.821Y-118.387
X145.821Y-119.657
X145.821Y-122.197
X145.821Y-123.467
X145.821Y-126.007
X145.821Y-156.387
X145.821Y-157.657
X145.821Y-160.197
X145.821Y-161.467
X145.821Y-164.007
X146.303Y-76.282
X146.303Y-114.227
X146.303Y-152.227
X148.771Y-71.217
X148.771Y-109.162
X148.771Y-147.162
X150.771Y-81.712
X150.771Y-82.982
X150.771Y-84.252
X150.771Y-85.522
X150.771Y-86.792
X150.771Y-119.657
X150.771Y-120.927
X150.771Y-122.197
X150.771Y-123.467
X150.771Y-124.737
X150.771Y-157.657
X150.771Y-158.927
X150.771Y-160.197
X150.771Y-161.467
X150.771Y-162.737
X152.771Y-68.117
X152.771Y-106.062
X152.771Y-144.062
X156.771Y-68.117
X156.771Y-106.062
X156.771Y-144.062
X160.771Y-71.217
X160.771Y-109.162
X160.771Y-147.162
T2
X49.421Y-106.317
X49.421Y-143.317
X49.421Y-161.317
X53.921Y-110.817
X62.421Y-70.317
X68.321Y-181.117
X83.921Y-49.317
X101.112Y-36.317
T3
X39.691Y-77.527
X39.691Y-80.067
X42.231Y-77.527
X42.231Y-80.067
X44.771Y-77.527
X44.771Y-80.067
X47.311Y-77.527
X47.311Y-80.067
X49.851Y-77.527
X49.851Y-80.067
X73.921Y-149.277
X73.921Y-151.817
X73.921Y-154.357
X77.152Y-40.928
X77.152Y-44.428
X95.711Y-30.554
X98.211Y-30.554
X116.587Y-41.017
X116.587Y-44.517
X135.146Y-30.643
X137.646Y-30.643
T4
X30.901Y-63.187
X30.901Y-65.727
X30.901Y-68.267
X30.901Y-70.807
X30.901Y-73.347
X30.901Y-75.887
X30.901Y-78.427
X30.901Y-80.967
X30.901Y-83.507
X30.901Y-86.047
X30.901Y-88.587
X30.901Y-91.127
X30.901Y-93.667
X30.901Y-96.207
X30.901Y-98.747
X30.901Y-101.287
X30.901Y-103.827
X30.901Y-106.367
X30.901Y-108.907
X30.901Y-111.447
X30.901Y-113.987
X30.901Y-116.527
X30.901Y-119.067
X30.901Y-121.607
X30.901Y-124.147
X30.901Y-126.687
X30.901Y-129.227
X30.901Y-131.767
X30.901Y-134.307
X30.901Y-136.847
X30.901Y-139.387
X30.901Y-141.927
X30.901Y-144.467
X30.901Y-147.007
X30.901Y-149.547
X33.441Y-63.187
X33.441Y-65.727
X33.441Y-68.267
X33.441Y-70.807
X33.441Y-73.347
X33.441Y-75.887
X33.441Y-78.427
X33.441Y-80.967
X33.441Y-83.507
X33.441Y-86.047
X33.441Y-88.587
X33.441Y-91.127
X33.441Y-93.667
X33.441Y-96.207
X33.441Y-98.747
X33.441Y-101.287
X33.441Y-103.827
X33.441Y-106.367
X33.441Y-108.907
X33.441Y-111.447
X33.441Y-113.987
X33.441Y-116.527
X33.441Y-119.067
X33.441Y-121.607
X33.441Y-124.147
X33.441Y-126.687
X33.441Y-129.227
X33.441Y-131.767
X33.441Y-134.307
X33.441Y-136.847
X33.441Y-139.387
X33.441Y-141.927
X33.441Y-144.467
X33.441Y-147.007
X33.441Y-149.547
X91.861Y-63.187
X91.861Y-65.727
X91.861Y-68.267
X91.861Y-70.807
X91.861Y-73.347
X91.861Y-75.887
X91.861Y-78.427
X91.861Y-80.967
X91.861Y-83.507
X91.861Y-86.047
X91.861Y-88.587
X91.861Y-91.127
X91.861Y-93.667
X91.861Y-96.207
X91.861Y-98.747
X91.861Y-101.287
X91.861Y-103.827
X91.861Y-106.367
X91.861Y-108.907
X91.861Y-111.447
X91.861Y-113.987
X91.861Y-116.527
X91.861Y-119.067
X91.861Y-121.607
X91.861Y-124.147
X91.861Y-126.687
X91.861Y-129.227
X91.861Y-131.767
X91.861Y-134.307
X91.861Y-136.847
X91.861Y-139.387
X91.861Y-141.927
X91.861Y-144.467
X91.861Y-147.007
X91.861Y-149.547
X94.401Y-63.187
X94.401Y-65.727
X94.401Y-68.267
X94.401Y-70.807
X94.401Y-73.347
X94.401Y-75.887
X94.401Y-78.427
X94.401Y-80.967
X94.401Y-83.507
X94.401Y-86.047
X94.401Y-88.587
X94.401Y-91.127
X94.401Y-93.667
X94.401Y-96.207
X94.401Y-98.747
X94.401Y-101.287
X94.401Y-103.827
X94.401Y-106.367
X94.401Y-108.907
X94.401Y-111.447
X94.401Y-113.987
X94.401Y-116.527
X94.401Y-119.067
X94.401Y-121.607
X94.401Y-124.147
X94.401Y-126.687
X94.401Y-129.227
X94.401Y-131.767
X94.401Y-134.307
X94.401Y-136.847
X94.401Y-139.387
X94.401Y-141.927
X94.401Y-144.467
X94.401Y-147.007
X94.401Y-149.547
X101.381Y-56.817
X103.921Y-56.817
T5
X55.368Y-132.817
X55.368Y-139.817
X55.396Y-97.817
X55.396Y-104.817
X55.396Y-118.817
X55.396Y-125.817
X55.396Y-146.817
X55.396Y-153.817
X55.396Y-160.817
X55.396Y-167.817
X55.396Y-174.817
X60.569Y-136.317
X60.569Y-143.317
X60.596Y-101.317
X60.596Y-108.317
X60.596Y-122.317
X60.596Y-129.317
X60.596Y-150.317
X60.596Y-157.317
X60.596Y-164.317
X60.596Y-171.317
X60.596Y-178.317
X70.921Y-82.382
X70.921Y-89.382
X70.921Y-96.382
X70.921Y-103.382
X70.921Y-110.382
X73.421Y-34.317
X76.121Y-85.882
X76.121Y-92.882
X76.121Y-99.882
X76.121Y-106.882
X76.121Y-113.882
X76.921Y-29.117
X93.796Y-177.317
X97.296Y-172.117
X100.796Y-177.317
X103.921Y-156.517
X104.296Y-172.117
X107.421Y-151.317
X107.796Y-177.317
X111.296Y-172.117
X112.921Y-34.317
X116.421Y-29.117
X116.921Y-61.517
X116.921Y-99.462
X116.921Y-137.462
X120.421Y-56.317
X120.421Y-94.262
X120.421Y-132.262
X123.921Y-61.517
X123.921Y-99.462
X123.921Y-137.462
X127.421Y-56.317
X127.421Y-94.262
X127.421Y-132.262
X130.921Y-61.517
X130.921Y-99.462
X130.921Y-137.462
X134.421Y-56.317
X134.421Y-94.262
X134.421Y-132.262
X142.921Y-61.517
X142.921Y-99.462
X142.921Y-137.462
X146.421Y-56.317
X146.421Y-94.262
X146.421Y-132.262
X149.921Y-61.517
X149.921Y-99.462
X149.921Y-137.462
X153.421Y-56.317
X153.421Y-94.262
X153.421Y-132.262
X156.921Y-61.517
X156.921Y-99.462
X156.921Y-137.462
X160.421Y-56.317
X160.421Y-94.262
X160.421Y-132.262
T6
X38.521Y-59.377
X39.791Y-135.577
X85.511Y-135.577
X86.781Y-60.647
T7
X32.421Y-26.317
X32.421Y-178.317
X159.421Y-26.317
X159.421Y-178.317
M30
