%TF.GenerationSoftware,KiCad,Pcbnew,9.0.1*%
%TF.CreationDate,2025-10-08T20:15:02+11:00*%
%TF.ProjectId,Remora Nucleo F446ZE Hat,52656d6f-7261-4204-9e75-636c656f2046,rev?*%
%TF.SameCoordinates,Original*%
%TF.FileFunction,Soldermask,Bot*%
%TF.FilePolarity,Negative*%
%FSLAX46Y46*%
G04 Gerber Fmt 4.6, Leading zero omitted, Abs format (unit mm)*
G04 Created by KiCad (PCBNEW 9.0.1) date 2025-10-08 20:15:02*
%MOMM*%
%LPD*%
G01*
G04 APERTURE LIST*
%ADD10C,1.803400*%
%ADD11C,1.000000*%
%ADD12R,1.700000X1.700000*%
%ADD13C,1.700000*%
%ADD14C,4.000000*%
%ADD15O,1.200000X2.000000*%
%ADD16C,2.750000*%
%ADD17R,1.750000X1.750000*%
%ADD18C,1.750000*%
G04 APERTURE END LIST*
D10*
%TO.C,J14*%
X99060000Y-130855000D03*
X99060000Y-127355000D03*
X99060000Y-123855000D03*
X99060000Y-120355000D03*
X99060000Y-116855000D03*
X99060000Y-113355000D03*
X99060000Y-109855000D03*
X99060000Y-106355000D03*
X99060000Y-102855000D03*
X99060000Y-99355000D03*
X99060000Y-95855000D03*
X99060000Y-92355000D03*
X99060000Y-88855000D03*
X99060000Y-85355000D03*
X99060000Y-81855000D03*
X99060000Y-78355000D03*
X99060000Y-74855000D03*
X99060000Y-71355000D03*
%TD*%
%TO.C,J12*%
X195580000Y-73660000D03*
X195580000Y-70160000D03*
X195580000Y-66660000D03*
X195580000Y-63160000D03*
X195580000Y-59660000D03*
X195580000Y-56160000D03*
X195580000Y-52660000D03*
X195580000Y-49160000D03*
X195580000Y-45660000D03*
X195580000Y-42160000D03*
%TD*%
%TO.C,J9*%
X194310000Y-125730000D03*
X194310000Y-122230000D03*
X194310000Y-118729999D03*
X194310000Y-115229998D03*
X194310000Y-111729998D03*
X194310000Y-108229997D03*
%TD*%
%TO.C,J6*%
X181610000Y-150510002D03*
X181610000Y-147010002D03*
X181610000Y-143510001D03*
X181610000Y-140010000D03*
X181610000Y-136510000D03*
X181610000Y-133009999D03*
%TD*%
%TO.C,J7*%
X194310000Y-150510002D03*
X194310000Y-147010002D03*
X194310000Y-143510001D03*
X194310000Y-140010000D03*
X194310000Y-136510000D03*
X194310000Y-133009999D03*
%TD*%
%TO.C,J8*%
X181610000Y-125730000D03*
X181610000Y-122230000D03*
X181610000Y-118729999D03*
X181610000Y-115229998D03*
X181610000Y-111729998D03*
X181610000Y-108229997D03*
%TD*%
D11*
%TO.C,J4*%
X177672000Y-33020000D03*
X169672000Y-33020000D03*
%TD*%
D12*
%TO.C,J3*%
X179065000Y-72390000D03*
D13*
X181605000Y-72390000D03*
%TD*%
D12*
%TO.C,J1*%
X106680000Y-66040000D03*
D13*
X109220000Y-66040000D03*
X106680000Y-68580000D03*
X109220000Y-68580000D03*
X106680000Y-71120000D03*
X109220000Y-71120000D03*
X106680000Y-73660000D03*
X109220000Y-73660000D03*
X106680000Y-76200000D03*
X109220000Y-76200000D03*
X106680000Y-78740000D03*
X109220000Y-78740000D03*
X106680000Y-81280000D03*
X109220000Y-81280000D03*
X106680000Y-83820000D03*
X109220000Y-83820000D03*
X106680000Y-86360000D03*
X109220000Y-86360000D03*
X106680000Y-88900000D03*
X109220000Y-88900000D03*
X106680000Y-91440000D03*
X109220000Y-91440000D03*
X106680000Y-93980000D03*
X109220000Y-93980000D03*
X106680000Y-96520000D03*
X109220000Y-96520000D03*
X106680000Y-99060000D03*
X109220000Y-99060000D03*
X106680000Y-101600000D03*
X109220000Y-101600000D03*
X106680000Y-104140000D03*
X109220000Y-104140000D03*
X106680000Y-106680000D03*
X109220000Y-106680000D03*
X106680000Y-109220000D03*
X109220000Y-109220000D03*
X106680000Y-111760000D03*
X109220000Y-111760000D03*
X106680000Y-114300000D03*
X109220000Y-114300000D03*
X106680000Y-116840000D03*
X109220000Y-116840000D03*
X106680000Y-119380000D03*
X109220000Y-119380000D03*
X106680000Y-121920000D03*
X109220000Y-121920000D03*
X106680000Y-124460000D03*
X109220000Y-124460000D03*
X106680000Y-127000000D03*
X109220000Y-127000000D03*
X106680000Y-129540000D03*
X109220000Y-129540000D03*
X106680000Y-132080000D03*
X109220000Y-132080000D03*
X106680000Y-134620000D03*
X109220000Y-134620000D03*
X106680000Y-137160000D03*
X109220000Y-137160000D03*
X106680000Y-139700000D03*
X109220000Y-139700000D03*
X106680000Y-142240000D03*
X109220000Y-142240000D03*
X106680000Y-144780000D03*
X109220000Y-144780000D03*
X106680000Y-147320000D03*
X109220000Y-147320000D03*
X106680000Y-149860000D03*
X109220000Y-149860000D03*
X106680000Y-152400000D03*
X109220000Y-152400000D03*
%TD*%
D14*
%TO.C,U1*%
X133470000Y-31170000D03*
X155970000Y-31170000D03*
D15*
X142900000Y-78380000D03*
X140360000Y-78380000D03*
X137820000Y-78380000D03*
X135280000Y-78380000D03*
X132740000Y-78380000D03*
X132740000Y-80920000D03*
X135280000Y-80920000D03*
X137820000Y-80920000D03*
X140360000Y-80920000D03*
X142900000Y-80920000D03*
%TD*%
D10*
%TO.C,J11*%
X194310000Y-100330000D03*
X194310000Y-96830000D03*
X194310000Y-93329999D03*
X194310000Y-89829998D03*
X194310000Y-86329998D03*
X194310000Y-82829997D03*
%TD*%
D12*
%TO.C,J2*%
X167640000Y-66040000D03*
D13*
X170180000Y-66040000D03*
X167640000Y-68580000D03*
X170180000Y-68580000D03*
X167640000Y-71120000D03*
X170180000Y-71120000D03*
X167640000Y-73660000D03*
X170180000Y-73660000D03*
X167640000Y-76200000D03*
X170180000Y-76200000D03*
X167640000Y-78740000D03*
X170180000Y-78740000D03*
X167640000Y-81280000D03*
X170180000Y-81280000D03*
X167640000Y-83820000D03*
X170180000Y-83820000D03*
X167640000Y-86360000D03*
X170180000Y-86360000D03*
X167640000Y-88900000D03*
X170180000Y-88900000D03*
X167640000Y-91440000D03*
X170180000Y-91440000D03*
X167640000Y-93980000D03*
X170180000Y-93980000D03*
X167640000Y-96520000D03*
X170180000Y-96520000D03*
X167640000Y-99060000D03*
X170180000Y-99060000D03*
X167640000Y-101600000D03*
X170180000Y-101600000D03*
X167640000Y-104140000D03*
X170180000Y-104140000D03*
X167640000Y-106680000D03*
X170180000Y-106680000D03*
X167640000Y-109220000D03*
X170180000Y-109220000D03*
X167640000Y-111760000D03*
X170180000Y-111760000D03*
X167640000Y-114300000D03*
X170180000Y-114300000D03*
X167640000Y-116840000D03*
X170180000Y-116840000D03*
X167640000Y-119380000D03*
X170180000Y-119380000D03*
X167640000Y-121920000D03*
X170180000Y-121920000D03*
X167640000Y-124460000D03*
X170180000Y-124460000D03*
X167640000Y-127000000D03*
X170180000Y-127000000D03*
X167640000Y-129540000D03*
X170180000Y-129540000D03*
X167640000Y-132080000D03*
X170180000Y-132080000D03*
X167640000Y-134620000D03*
X170180000Y-134620000D03*
X167640000Y-137160000D03*
X170180000Y-137160000D03*
X167640000Y-139700000D03*
X170180000Y-139700000D03*
X167640000Y-142240000D03*
X170180000Y-142240000D03*
X167640000Y-144780000D03*
X170180000Y-144780000D03*
X167640000Y-147320000D03*
X170180000Y-147320000D03*
X167640000Y-149860000D03*
X170180000Y-149860000D03*
X167640000Y-152400000D03*
X170180000Y-152400000D03*
%TD*%
D10*
%TO.C,J10*%
X181610000Y-100330000D03*
X181610000Y-96830000D03*
X181610000Y-93329999D03*
X181610000Y-89829998D03*
X181610000Y-86329998D03*
X181610000Y-82829997D03*
%TD*%
D16*
%TO.C,RP1*%
X113560000Y-126790000D03*
X162560000Y-126790000D03*
X113560000Y-68790000D03*
X162560000Y-68790000D03*
D17*
X161290000Y-121920000D03*
D18*
X163830000Y-121920000D03*
X161290000Y-119380000D03*
X163830000Y-119380000D03*
X161290000Y-116840000D03*
X163830000Y-116840000D03*
X161290000Y-114300000D03*
X163830000Y-114300000D03*
X161290000Y-111760000D03*
X163830000Y-111760000D03*
X161290000Y-109220000D03*
X163830000Y-109220000D03*
X161290000Y-106680000D03*
X163830000Y-106680000D03*
X161290000Y-104140000D03*
X163830000Y-104140000D03*
X161290000Y-101600000D03*
X163830000Y-101600000D03*
X161290000Y-99060000D03*
X163830000Y-99060000D03*
X161290000Y-96520000D03*
X163830000Y-96520000D03*
X161290000Y-93980000D03*
X163830000Y-93980000D03*
X161290000Y-91440000D03*
X163830000Y-91440000D03*
X161290000Y-88900000D03*
X163830000Y-88900000D03*
X161290000Y-86360000D03*
X163830000Y-86360000D03*
X161290000Y-83820000D03*
X163830000Y-83820000D03*
X161290000Y-81280000D03*
X163830000Y-81280000D03*
X161290000Y-78740000D03*
X163830000Y-78740000D03*
X161290000Y-76200000D03*
X163830000Y-76200000D03*
X161290000Y-73660000D03*
X163830000Y-73660000D03*
%TD*%
M02*
