%TF.GenerationSoftware,KiCad,Pcbnew,9.0.1*%
%TF.CreationDate,2025-10-08T20:15:02+11:00*%
%TF.ProjectId,Remora Nucleo F446ZE Hat,52656d6f-7261-4204-9e75-636c656f2046,rev?*%
%TF.SameCoordinates,Original*%
%TF.FileFunction,Paste,Top*%
%TF.FilePolarity,Positive*%
%FSLAX46Y46*%
G04 Gerber Fmt 4.6, Leading zero omitted, Abs format (unit mm)*
G04 Created by KiCad (PCBNEW 9.0.1) date 2025-10-08 20:15:02*
%MOMM*%
%LPD*%
G01*
G04 APERTURE LIST*
G04 Aperture macros list*
%AMRoundRect*
0 Rectangle with rounded corners*
0 $1 Rounding radius*
0 $2 $3 $4 $5 $6 $7 $8 $9 X,Y pos of 4 corners*
0 Add a 4 corners polygon primitive as box body*
4,1,4,$2,$3,$4,$5,$6,$7,$8,$9,$2,$3,0*
0 Add four circle primitives for the rounded corners*
1,1,$1+$1,$2,$3*
1,1,$1+$1,$4,$5*
1,1,$1+$1,$6,$7*
1,1,$1+$1,$8,$9*
0 Add four rect primitives between the rounded corners*
20,1,$1+$1,$2,$3,$4,$5,0*
20,1,$1+$1,$4,$5,$6,$7,0*
20,1,$1+$1,$6,$7,$8,$9,0*
20,1,$1+$1,$8,$9,$2,$3,0*%
G04 Aperture macros list end*
%ADD10RoundRect,0.250000X0.625000X-0.400000X0.625000X0.400000X-0.625000X0.400000X-0.625000X-0.400000X0*%
%ADD11RoundRect,0.250000X-0.650000X0.412500X-0.650000X-0.412500X0.650000X-0.412500X0.650000X0.412500X0*%
%ADD12RoundRect,0.250001X-0.462499X-0.624999X0.462499X-0.624999X0.462499X0.624999X-0.462499X0.624999X0*%
%ADD13R,0.700000X1.600000*%
%ADD14R,1.600000X1.500000*%
%ADD15R,1.200000X1.800000*%
%ADD16R,1.200000X2.200000*%
%ADD17RoundRect,0.250000X0.400000X0.625000X-0.400000X0.625000X-0.400000X-0.625000X0.400000X-0.625000X0*%
%ADD18RoundRect,0.250000X0.412500X0.650000X-0.412500X0.650000X-0.412500X-0.650000X0.412500X-0.650000X0*%
%ADD19RoundRect,0.250000X-0.412500X-0.650000X0.412500X-0.650000X0.412500X0.650000X-0.412500X0.650000X0*%
%ADD20RoundRect,0.250001X0.624999X-0.462499X0.624999X0.462499X-0.624999X0.462499X-0.624999X-0.462499X0*%
%ADD21R,1.400000X1.600000*%
G04 APERTURE END LIST*
D10*
%TO.C,R32*%
X171196000Y-49836000D03*
X171196000Y-46736000D03*
%TD*%
%TO.C,R26*%
X178816000Y-49836000D03*
X178816000Y-46736000D03*
%TD*%
D11*
%TO.C,C53*%
X181356000Y-46711000D03*
X181356000Y-49836000D03*
%TD*%
D12*
%TO.C,D8*%
X165860000Y-156845000D03*
X168835000Y-156845000D03*
%TD*%
D10*
%TO.C,R33*%
X173736000Y-49836000D03*
X173736000Y-46736000D03*
%TD*%
D13*
%TO.C,J4*%
X170472000Y-44020000D03*
X171572000Y-44020000D03*
X172672000Y-44020000D03*
X173772000Y-44020000D03*
X174872000Y-44020000D03*
X175972000Y-44020000D03*
X177072000Y-44020000D03*
X178172000Y-44020000D03*
D14*
X165872000Y-42970000D03*
D15*
X180472000Y-42720000D03*
D16*
X164972000Y-33420000D03*
X180472000Y-33420000D03*
D13*
X179272000Y-44020000D03*
%TD*%
D17*
%TO.C,R17*%
X174550000Y-156845000D03*
X171450000Y-156845000D03*
%TD*%
D10*
%TO.C,R30*%
X166116000Y-49836000D03*
X166116000Y-46736000D03*
%TD*%
%TO.C,R1*%
X182118000Y-69140000D03*
X182118000Y-66040000D03*
%TD*%
%TO.C,R31*%
X168656000Y-49836000D03*
X168656000Y-46736000D03*
%TD*%
D18*
%TO.C,C22*%
X197142500Y-77470000D03*
X194017500Y-77470000D03*
%TD*%
D19*
%TO.C,C24*%
X97790000Y-67310000D03*
X100915000Y-67310000D03*
%TD*%
D11*
%TO.C,C54*%
X163576000Y-46711000D03*
X163576000Y-49836000D03*
%TD*%
D10*
%TO.C,R25*%
X176276000Y-49836000D03*
X176276000Y-46736000D03*
%TD*%
D17*
%TO.C,R19*%
X101092000Y-50038000D03*
X97992000Y-50038000D03*
%TD*%
D20*
%TO.C,D1*%
X179070000Y-69015000D03*
X179070000Y-66040000D03*
%TD*%
D21*
%TO.C,SW2*%
X97318000Y-61404000D03*
X97318000Y-53404000D03*
X101818000Y-61404000D03*
X101818000Y-53404000D03*
%TD*%
M02*
