M48
; DRILL file {KiCad 9.0.1} date 2025-10-08T20:15:03+1100
; FORMAT={-:-/ absolute / metric / decimal}
; #@! TF.CreationDate,2025-10-08T20:15:03+11:00
; #@! TF.GenerationSoftware,Kicad,Pcbnew,9.0.1
; #@! TF.FileFunction,Plated,1,2,PTH
FMAT,2
METRIC
; #@! TA.AperFunction,Plated,PTH,ViaDrill
T1C0.300
; #@! TA.AperFunction,Plated,PTH,ComponentDrill
T2C0.800
; #@! TA.AperFunction,Plated,PTH,ComponentDrill
T3C1.000
; #@! TA.AperFunction,Plated,PTH,ComponentDrill
T4C1.016
; #@! TA.AperFunction,Plated,PTH,ComponentDrill
T5C1.295
; #@! TA.AperFunction,Plated,PTH,ViaDrill
T6C3.000
; #@! TA.AperFunction,Plated,PTH,ViaDrill
T7C3.500
%
G90
G05
T1
X103.378Y-53.34
X103.378Y-61.468
X104.14Y-50.8
X114.808Y-77.978
X114.808Y-78.994
X115.824Y-77.978
X115.824Y-78.994
X116.84Y-77.978
X116.84Y-78.994
X127.0Y-77.978
X127.0Y-78.994
X128.016Y-77.978
X128.016Y-78.994
X129.032Y-77.978
X129.032Y-78.994
X154.94Y-77.978
X154.94Y-78.994
X155.956Y-77.978
X155.956Y-78.994
X156.972Y-77.978
X156.972Y-78.994
X159.004Y-93.218
X164.592Y-44.196
X164.592Y-45.212
X165.608Y-44.196
X165.608Y-45.212
X165.735Y-48.26
X165.735Y-84.455
X165.76Y-80.874
X165.862Y-87.376
X165.862Y-88.392
X166.624Y-44.196
X166.624Y-45.212
X168.275Y-48.26
X169.418Y-40.386
X169.418Y-42.418
X170.434Y-40.386
X170.434Y-42.418
X170.815Y-48.26
X171.45Y-40.386
X171.45Y-42.418
X172.466Y-79.299
X173.355Y-48.26
X175.895Y-48.26
X176.784Y-40.386
X176.784Y-42.418
X177.8Y-40.386
X177.8Y-42.418
X178.435Y-48.26
X178.816Y-40.386
X178.816Y-42.418
X178.816Y-52.07
X179.832Y-64.262
X180.594Y-44.45
X180.594Y-45.212
X181.61Y-44.45
X181.61Y-45.212
T2
X132.74Y-78.38
X132.74Y-80.92
X135.28Y-78.38
X135.28Y-80.92
X137.82Y-78.38
X137.82Y-80.92
X140.36Y-78.38
X140.36Y-80.92
X142.9Y-78.38
X142.9Y-80.92
T3
X106.68Y-66.04
X106.68Y-68.58
X106.68Y-71.12
X106.68Y-73.66
X106.68Y-76.2
X106.68Y-78.74
X106.68Y-81.28
X106.68Y-83.82
X106.68Y-86.36
X106.68Y-88.9
X106.68Y-91.44
X106.68Y-93.98
X106.68Y-96.52
X106.68Y-99.06
X106.68Y-101.6
X106.68Y-104.14
X106.68Y-106.68
X106.68Y-109.22
X106.68Y-111.76
X106.68Y-114.3
X106.68Y-116.84
X106.68Y-119.38
X106.68Y-121.92
X106.68Y-124.46
X106.68Y-127.0
X106.68Y-129.54
X106.68Y-132.08
X106.68Y-134.62
X106.68Y-137.16
X106.68Y-139.7
X106.68Y-142.24
X106.68Y-144.78
X106.68Y-147.32
X106.68Y-149.86
X106.68Y-152.4
X109.22Y-66.04
X109.22Y-68.58
X109.22Y-71.12
X109.22Y-73.66
X109.22Y-76.2
X109.22Y-78.74
X109.22Y-81.28
X109.22Y-83.82
X109.22Y-86.36
X109.22Y-88.9
X109.22Y-91.44
X109.22Y-93.98
X109.22Y-96.52
X109.22Y-99.06
X109.22Y-101.6
X109.22Y-104.14
X109.22Y-106.68
X109.22Y-109.22
X109.22Y-111.76
X109.22Y-114.3
X109.22Y-116.84
X109.22Y-119.38
X109.22Y-121.92
X109.22Y-124.46
X109.22Y-127.0
X109.22Y-129.54
X109.22Y-132.08
X109.22Y-134.62
X109.22Y-137.16
X109.22Y-139.7
X109.22Y-142.24
X109.22Y-144.78
X109.22Y-147.32
X109.22Y-149.86
X109.22Y-152.4
X167.64Y-66.04
X167.64Y-68.58
X167.64Y-71.12
X167.64Y-73.66
X167.64Y-76.2
X167.64Y-78.74
X167.64Y-81.28
X167.64Y-83.82
X167.64Y-86.36
X167.64Y-88.9
X167.64Y-91.44
X167.64Y-93.98
X167.64Y-96.52
X167.64Y-99.06
X167.64Y-101.6
X167.64Y-104.14
X167.64Y-106.68
X167.64Y-109.22
X167.64Y-111.76
X167.64Y-114.3
X167.64Y-116.84
X167.64Y-119.38
X167.64Y-121.92
X167.64Y-124.46
X167.64Y-127.0
X167.64Y-129.54
X167.64Y-132.08
X167.64Y-134.62
X167.64Y-137.16
X167.64Y-139.7
X167.64Y-142.24
X167.64Y-144.78
X167.64Y-147.32
X167.64Y-149.86
X167.64Y-152.4
X170.18Y-66.04
X170.18Y-68.58
X170.18Y-71.12
X170.18Y-73.66
X170.18Y-76.2
X170.18Y-78.74
X170.18Y-81.28
X170.18Y-83.82
X170.18Y-86.36
X170.18Y-88.9
X170.18Y-91.44
X170.18Y-93.98
X170.18Y-96.52
X170.18Y-99.06
X170.18Y-101.6
X170.18Y-104.14
X170.18Y-106.68
X170.18Y-109.22
X170.18Y-111.76
X170.18Y-114.3
X170.18Y-116.84
X170.18Y-119.38
X170.18Y-121.92
X170.18Y-124.46
X170.18Y-127.0
X170.18Y-129.54
X170.18Y-132.08
X170.18Y-134.62
X170.18Y-137.16
X170.18Y-139.7
X170.18Y-142.24
X170.18Y-144.78
X170.18Y-147.32
X170.18Y-149.86
X170.18Y-152.4
X179.065Y-72.39
X181.605Y-72.39
T4
X161.29Y-73.66
X161.29Y-76.2
X161.29Y-78.74
X161.29Y-81.28
X161.29Y-83.82
X161.29Y-86.36
X161.29Y-88.9
X161.29Y-91.44
X161.29Y-93.98
X161.29Y-96.52
X161.29Y-99.06
X161.29Y-101.6
X161.29Y-104.14
X161.29Y-106.68
X161.29Y-109.22
X161.29Y-111.76
X161.29Y-114.3
X161.29Y-116.84
X161.29Y-119.38
X161.29Y-121.92
X163.83Y-73.66
X163.83Y-76.2
X163.83Y-78.74
X163.83Y-81.28
X163.83Y-83.82
X163.83Y-86.36
X163.83Y-88.9
X163.83Y-91.44
X163.83Y-93.98
X163.83Y-96.52
X163.83Y-99.06
X163.83Y-101.6
X163.83Y-104.14
X163.83Y-106.68
X163.83Y-109.22
X163.83Y-111.76
X163.83Y-114.3
X163.83Y-116.84
X163.83Y-119.38
X163.83Y-121.92
T5
X99.06Y-71.355
X99.06Y-74.855
X99.06Y-78.355
X99.06Y-81.855
X99.06Y-85.355
X99.06Y-88.855
X99.06Y-92.355
X99.06Y-95.855
X99.06Y-99.355
X99.06Y-102.855
X99.06Y-106.355
X99.06Y-109.855
X99.06Y-113.355
X99.06Y-116.855
X99.06Y-120.355
X99.06Y-123.855
X99.06Y-127.355
X99.06Y-130.855
X181.61Y-82.83
X181.61Y-86.33
X181.61Y-89.83
X181.61Y-93.33
X181.61Y-96.83
X181.61Y-100.33
X181.61Y-108.23
X181.61Y-111.73
X181.61Y-115.23
X181.61Y-118.73
X181.61Y-122.23
X181.61Y-125.73
X181.61Y-133.01
X181.61Y-136.51
X181.61Y-140.01
X181.61Y-143.51
X181.61Y-147.01
X181.61Y-150.51
X194.31Y-82.83
X194.31Y-86.33
X194.31Y-89.83
X194.31Y-93.33
X194.31Y-96.83
X194.31Y-100.33
X194.31Y-108.23
X194.31Y-111.73
X194.31Y-115.23
X194.31Y-118.73
X194.31Y-122.23
X194.31Y-125.73
X194.31Y-133.01
X194.31Y-136.51
X194.31Y-140.01
X194.31Y-143.51
X194.31Y-147.01
X194.31Y-150.51
X195.58Y-42.16
X195.58Y-45.66
X195.58Y-49.16
X195.58Y-52.66
X195.58Y-56.16
X195.58Y-59.66
X195.58Y-63.16
X195.58Y-66.66
X195.58Y-70.16
X195.58Y-73.66
T6
X97.79Y-27.94
X97.79Y-157.48
X114.3Y-62.23
X115.57Y-138.43
X161.29Y-138.43
X162.56Y-63.5
X196.85Y-27.94
X196.85Y-157.48
T7
X147.32Y-114.3
M30
